<svg xmlns="http://www.w3.org/2000/svg" width="32" height="32" viewBox="0 0 32 32"><defs><style>.a,.b{fill:#2c2c2c;}.a{fill-rule:evenodd;}</style></defs><g transform="translate(0 0)"><path class="a" d="M32.855,35.855a.938.938,0,0,1-1.875,0V31.918a.937.937,0,0,1,.938-.938h3.937a.938.938,0,1,1,0,1.875h-3Zm28.25,22.25a.937.937,0,1,1,1.875,0v3.938a.938.938,0,0,1-.937.937H58.105a.937.937,0,1,1,0-1.875h3Zm-30.125,0v3.938a.937.937,0,0,0,.938.937h3.937a.937.937,0,1,0,0-1.875h-3v-3a.938.938,0,0,0-1.875,0Zm32-22.25V31.918a.937.937,0,0,0-.937-.938H58.105a.938.938,0,1,0,0,1.875h3v3a.937.937,0,1,0,1.875,0Z" transform="translate(-30.98 -30.98)"/><rect class="b" width="3.346" height="13.385" rx="1" transform="translate(3.346 10.039)"/><rect class="b" width="1.673" height="13.385" rx="0.837" transform="translate(8.366 10.039)"/><rect class="b" width="3.346" height="8.366" rx="1" transform="translate(11.712 10.039)"/><rect class="b" width="3.346" height="8.366" rx="1" transform="translate(16.732 10.039)"/><rect class="b" width="1.673" height="8.366" rx="0.837" transform="translate(21.751 10.039)"/><rect class="b" width="3.346" height="13.385" rx="1" transform="translate(25.098 10.039)"/></g></svg>